PathFileType	4	(X/Y/Z)	C:\Git\research_data\Projects\squatting_fais\c3dfiles\036\SJ_pre2\markers_experimental.trc
DataRate	CameraRate	NumFrames	NumMarkers	Units	OrigDataRate	OrigDataStartFrame	OrigNumFrames
200.000000	200.000000	4	62	mm	200.000000	838	1677
Frame#	Time	FHD			LBHD			RBHD			C7			T10			CLAV			LSHO			LUUPA			LMUPA			LDUPA			LLEP			LMEP			LRAD			LUL			LRFIN			RSHO			RUPA1			RMUPA			RDUPA			RLEP			RMEP			RRAD			RUL			RUFIN			LASI			RASI			USACR			LSACR			RSACR			LTHI1			LTHI2			LTHI3			LTHI4			LLFC			LMFC			LTIB1			LTIB2			LTIB3			LTIB4			LLMAL			LMMAL			LHEE			LMT1			LMT2			LMT5			RTHI			RTHI2			RTHI3			RTHI4			RLFC			RMFC			RTIB1			RTIB2			RTIB3			RTIB4			RLMAL			RMMAL			RHEE			RMT1			RMT2			RMT5			*61			
		X1	Y1	Z1	X2	Y2	Z2	X3	Y3	Z3	X4	Y4	Z4	X5	Y5	Z5	X6	Y6	Z6	X7	Y7	Z7	X8	Y8	Z8	X9	Y9	Z9	X10	Y10	Z10	X11	Y11	Z11	X12	Y12	Z12	X13	Y13	Z13	X14	Y14	Z14	X15	Y15	Z15	X16	Y16	Z16	X17	Y17	Z17	X18	Y18	Z18	X19	Y19	Z19	X20	Y20	Z20	X21	Y21	Z21	X22	Y22	Z22	X23	Y23	Z23	X24	Y24	Z24	X25	Y25	Z25	X26	Y26	Z26	X27	Y27	Z27	X28	Y28	Z28	X29	Y29	Z29	X30	Y30	Z30	X31	Y31	Z31	X32	Y32	Z32	X33	Y33	Z33	X34	Y34	Z34	X35	Y35	Z35	X36	Y36	Z36	X37	Y37	Z37	X38	Y38	Z38	X39	Y39	Z39	X40	Y40	Z40	X41	Y41	Z41	X42	Y42	Z42	X43	Y43	Z43	X44	Y44	Z44	X45	Y45	Z45	X46	Y46	Z46	X47	Y47	Z47	X48	Y48	Z48	X49	Y49	Z49	X50	Y50	Z50	X51	Y51	Z51	X52	Y52	Z52	X53	Y53	Z53	X54	Y54	Z54	X55	Y55	Z55	X56	Y56	Z56	X57	Y57	Z57	X58	Y58	Z58	X59	Y59	Z59	X60	Y60	Z60	X61	Y61	Z61	X62	Y62	Z62	

839	4.19	56.77346420288087	1062.88525390625	-934.0110473632815	-112.0645141601563	1020.353271484375	-998.3586425781252	-64.20608520507814	1042.233154296875	-855.5965576171877	-128.67529296875	982.0017089843752	-950.823425292969	-380.6323242187501	815.1060180664065	-937.7041015625002	-67.94658660888673	828.5100708007815	-921.7041625976565	-53.44134902954103	876.5432128906252	-1061.446166992188	-144.6509857177735	847.7180786132815	-1209.587158203125	-161.1978149414063	800.6773071289065	-1214.244873046875	-191.1896514892578	828.041931152344	-1258.68505859375	-240.9039916992188	803.1304931640627	-1284.423828125	-275.7157287597657	860.8027343750002	-1271.327270507813	-403.6873168945314	653.2009277343751	-1207.156982421875	-421.0892333984376	708.5262451171876	-1166.772216796875	-403.3304748535157	671.5782470703126	-1118.165161132813	-71.98014068603517	903.8753051757815	-790.191589355469	-162.4734497070313	885.4859619140627	-656.8413696289064	-166.2454681396485	835.8079223632815	-649.5769653320314	-201.0919494628907	855.8798828125002	-605.2617797851564	-257.2911071777344	814.713317871094	-570.7645263671876	-313.4331970214844	859.356384277344	-597.2885742187501	-411.3348388671876	699.2417602539064	-707.0699462890626	-390.158660888672	645.7546997070314	-671.1889038085939	-399.5277404785157	663.5781250000001	-755.9613647460939	nan	nan	nan	nan	nan	nan	-478.1981506347657	772.7337036132815	-942.974304199219	-512.5293579101564	765.0935058593751	-968.749694824219	-510.2976074218751	768.3007812500002	-913.0718383789065	-466.5663146972657	588.2222290039064	-1167.386474609375	-390.5892639160157	557.6439208984376	-1170.435302734375	-363.2255249023438	589.6729125976564	-1147.771240234375	-369.9151916503907	505.5604553222657	-1177.963500976563	-269.9753417968751	404.0983886718751	-1186.620727539063	-231.2569122314454	373.2206420898438	-1036.501708984375	-242.1025543212891	240.3874664306641	-1104.174560546875	-287.5807189941407	213.4775085449219	-1174.072509765625	-266.4165649414063	200.3004760742188	-1136.089111328125	-307.0834655761719	133.0969848632813	-1101.9375	-394.5194396972657	83.00904083251955	-1155.442626953125	-372.5311584472657	84.72132873535158	-1071.696533203125	-451.8401489257814	61.01137924194337	-1116.277709960938	-262.7314453125001	51.96106719970705	-1093.294799804688	-250.960922241211	53.92429351806642	-1141.513671875	-293.9174194335938	35.47997665405274	-1189.832885742188	-478.7127990722657	508.8428039550782	-703.8724975585939	-414.0105590820314	507.547576904297	-687.2463989257814	-395.8853149414064	534.6735839843751	-687.5582275390626	-361.8287048339844	443.7220458984376	-685.1472778320314	-258.7143554687501	397.8180236816407	-672.1072998046876	-212.858871459961	408.3906250000001	-814.2462158203127	-234.1392059326172	251.9409790039063	-722.0654907226564	-329.9378967285157	204.9081573486329	-682.3479003906251	-291.9145202636719	189.4803619384766	-704.7148437500001	-300.8450927734376	143.884750366211	-741.6721801757814	-411.8686523437501	84.25320434570314	-729.3690185546876	-369.9598083496094	82.41854095458986	-803.5320434570315	-455.9201049804689	58.77524185180665	-770.6538085937502	-258.3724975585938	49.68631744384767	-759.2272338867189	-265.7372131347657	57.48933029174806	-709.7774658203126	-310.2357788085938	36.55870056152344	-668.8328247070314	nan	nan	nan	
840	4.195	56.75369262695314	1062.896240234375	-934.020690917969	-112.0835113525391	1020.343139648438	-998.380798339844	-64.21929168701173	1042.267578125	-855.5552368164065	-128.688949584961	982.0339355468752	-950.7800292968752	-380.6861572265626	815.210388183594	-937.6589355468752	-67.93090057373048	828.553894042969	-921.6423339843752	-53.46483230590822	876.5518798828127	-1061.458740234375	-144.7064666748047	847.7759399414065	-1209.5380859375	-161.1853332519532	800.7464599609377	-1214.252075195313	-191.0985260009766	828.095642089844	-1258.7041015625	-240.9362792968751	803.1734619140627	-1284.408935546875	-275.7387390136719	860.8553466796877	-1271.316284179688	-403.7568359375001	653.3056640625001	-1207.131103515625	-421.0823974609376	708.6185913085939	-1166.774536132813	-403.3328857421876	671.6650390625001	-1118.179565429688	-72.03150939941408	903.8687744140627	-790.1455688476565	-162.4553833007813	885.5012207031252	-656.7630615234376	-166.2342224121094	835.8533325195315	-649.5396728515626	-201.1229705810547	855.8964843750002	-605.2379150390626	-257.3033142089844	814.7221679687502	-570.6744995117189	-313.3723754882813	859.323425292969	-597.3628540039064	-411.352752685547	699.3044433593751	-707.0396728515626	-390.1615600585939	645.7882080078126	-671.1846923828126	-399.5749816894532	663.7676391601564	-755.9323730468751	nan	nan	nan	nan	nan	nan	-478.1763916015626	772.7994384765627	-942.9151611328127	-512.4763183593751	765.2042846679689	-968.6990966796877	-511.0110168457032	768.5966796875002	-913.089782714844	-466.6925354003907	588.3251953125001	-1167.365966796875	-390.6016235351564	557.7025756835939	-1170.408081054688	-363.2580261230469	589.8067626953126	-1147.740112304688	-369.9545898437501	505.612518310547	-1177.903076171875	-269.4013671875001	404.1726074218751	-1186.425170898438	-231.1947631835938	373.3419189453126	-1036.4140625	-242.1149902343751	240.4312133789063	-1104.175415039063	-287.4804687500001	213.5638427734376	-1174.099365234375	-266.4544677734376	200.3854217529297	-1136.114868164063	-307.1276550292969	133.0895385742188	-1101.958251953125	-394.542449951172	83.02579498291017	-1155.447143554688	-372.5245361328126	84.71324920654298	-1071.701416015625	-451.8285217285157	61.02310180664064	-1116.288452148438	-262.7217407226563	52.01221084594728	-1093.28076171875	-250.9894256591797	53.94506072998048	-1141.543090820313	-293.8639221191407	35.42484664916993	-1189.864013671875	-478.7974853515626	508.9540405273439	-703.8304443359376	-413.9855346679689	507.623504638672	-687.2517089843751	-395.8973693847657	534.6943359375001	-687.5311279296876	-361.8369750976563	443.7335205078126	-685.1465454101564	-258.7723388671876	397.832244873047	-672.1174926757814	-212.839096069336	408.4420471191407	-814.247497558594	-234.1512298583985	251.9721069335938	-722.0598754882814	-330.0006713867188	204.9193267822266	-682.3453979492189	-291.9596252441407	189.4626007080078	-704.7687377929689	-300.9094238281251	143.8616790771485	-741.6813354492189	-411.8800048828126	84.22766113281251	-729.3889160156251	-370.0480957031251	82.39176177978517	-803.5030517578127	-455.9185485839845	58.7780227661133	-770.654235839844	-258.3555297851563	49.71101379394533	-759.2488403320314	-265.7368469238282	57.46386718750001	-709.8105468750001	-310.2167663574219	36.57519531250001	-668.8729248046876	nan	nan	nan	
841	4.2	56.75540924072267	1062.966918945313	-934.0369262695315	-112.1263504028321	1020.415100097656	-998.3765869140627	-64.21325683593751	1042.299438476563	-855.5528564453127	-128.6846618652344	982.0686645507815	-950.7770996093752	-380.6587219238282	815.2586059570315	-937.6162109375002	-67.93096923828126	828.5545043945315	-921.6468505859377	-53.40278625488283	876.5905761718752	-1061.44482421875	-144.7557067871094	847.7886352539065	-1209.558471679688	-161.2192077636719	800.754577636719	-1214.260009765625	-191.3558197021485	828.286315917969	-1258.674194335938	-240.8824920654297	803.1950683593752	-1284.358032226563	-275.7764892578126	860.925964355469	-1271.305786132813	-403.8614196777345	653.3312377929689	-1207.044677734375	-421.1355285644532	708.6528320312501	-1166.762451171875	-403.3269348144532	671.7347412109376	-1118.14306640625	-72.05226898193361	903.9442138671877	-790.1328735351565	-162.4714660644532	885.5487060546877	-656.7909545898439	-166.2959747314453	835.9033203125002	-649.4924316406251	-201.1147918701172	855.9378662109377	-605.1641235351564	-257.3387756347657	814.7964477539065	-570.6181030273439	-313.4393920898438	859.4468383789065	-597.2639770507814	-411.3848571777345	699.3554077148439	-706.9972534179689	-390.1040649414064	645.8547973632814	-671.1624755859376	-399.6058349609376	663.8707275390626	-755.8889770507814	nan	nan	nan	nan	nan	nan	-478.1743469238282	772.8629150390627	-942.924743652344	-512.4920654296876	765.3060913085939	-968.6503906250002	-511.6743469238282	768.8836669921877	-913.1043090820315	-466.6822204589845	588.3941650390626	-1167.349487304688	-390.7216186523439	557.8536987304689	-1170.410278320313	-363.4248046875001	589.8394775390626	-1147.69921875	-369.9949951171876	505.6691284179689	-1177.865234375	-269.4854125976563	404.2389526367189	-1186.38037109375	-231.1317901611329	373.3503112792969	-1036.343139648438	-242.1380004882813	240.5105438232422	-1104.166625976563	-287.5838317871094	213.5808258056641	-1174.069702148438	-266.4542236328126	200.3765258789063	-1136.119873046875	-307.1329040527344	133.1013793945313	-1101.954467773438	-394.5422668457032	82.99732208251955	-1155.37841796875	-372.5368347167969	84.72463226318361	-1071.715087890625	-451.8435058593751	61.02220535278322	-1116.2890625	-262.7311401367188	52.03099822998048	-1093.278076171875	-250.9976959228516	53.92791748046876	-1141.513916015625	-293.8929443359376	35.45248413085938	-1189.822631835938	-478.8458557128907	509.051239013672	-703.7587890625001	-413.9993896484376	507.6239013671876	-687.2710571289064	-395.9244384765626	534.7493896484376	-687.4888305664064	-361.8788146972657	443.7425231933595	-685.1644287109376	-258.8836669921876	397.8856811523439	-672.1110839843751	-213.1702880859376	408.3595275878907	-814.145446777344	-234.2249145507813	252.0208740234376	-722.0697631835939	-329.9907836914063	204.9330749511719	-682.3455200195314	-291.9743957519532	189.4938659667969	-704.6963500976564	-300.9106750488282	143.9005584716797	-741.7216186523439	-411.9186401367189	84.23361206054689	-729.4166870117189	-370.0381469726563	82.38323211669923	-803.4893188476565	-455.911102294922	58.7435874938965	-770.6490478515627	-258.3681030273438	49.70367813110353	-759.2098999023439	-265.7575683593751	57.48943328857423	-709.8129272460939	-310.2483520507813	36.5499610900879	-668.8988037109376	nan	nan	nan	
842	4.205	56.71206665039064	1062.973876953125	-934.046325683594	-112.1193084716797	1020.44775390625	-998.3876953125002	-64.21681213378908	1042.345825195313	-855.5548095703127	-128.7275695800782	982.1053466796877	-950.7773437500002	-380.5989379882813	815.258239746094	-937.587341308594	-67.92786407470705	828.6074829101565	-921.6433715820315	-53.4628372192383	876.6401367187502	-1061.442504882813	-144.775634765625	847.8336181640627	-1209.560791015625	-161.195556640625	800.8199462890627	-1214.192016601563	-191.2226867675782	828.1518554687502	-1258.666748046875	-240.9227294921876	803.2185668945315	-1284.369140625	-275.8000793457032	860.9494628906252	-1271.300537109375	-404.4468078613282	653.6592407226564	-1206.980346679688	-421.2192993164064	708.7447509765626	-1166.742919921875	-402.9579162597657	671.6453857421876	-1118.050048828125	-72.04544830322267	903.9876098632815	-790.1711425781252	-162.4326477050782	885.6079101562502	-656.7768554687501	-166.249740600586	835.9570312500002	-649.4702148437501	-201.1349487304688	855.961853027344	-605.1730346679689	-257.3151855468751	814.8150634765627	-570.6453247070314	-313.4346618652344	859.4815673828127	-597.3102416992189	-411.4378967285157	699.4307250976564	-706.9466552734376	-390.1125793457032	645.9135742187501	-671.1047363281251	-399.5589904785157	663.8513793945314	-755.8282470703126	nan	nan	nan	nan	nan	nan	-478.170623779297	772.9311523437502	-942.8689575195315	-512.3319091796876	765.3560180664064	-968.6289672851565	-512.2488403320314	769.148864746094	-913.112243652344	-466.0557861328126	587.9927368164064	-1167.301879882813	-390.8160095214845	557.8684692382814	-1170.369384765625	-363.0584716796876	589.7932739257814	-1147.616943359375	-370.0977172851563	505.8093566894532	-1177.90966796875	-270.2452087402344	404.2484436035157	-1186.52490234375	-231.1734771728516	372.8163146972657	-1036.58056640625	-242.142074584961	240.5150756835938	-1104.165771484375	-287.5841674804688	213.6301269531251	-1174.078491210938	-266.4285278320313	200.3601226806641	-1136.109741210938	-307.1336364746094	133.1236877441407	-1101.943603515625	-394.5969238281251	83.02664184570314	-1155.434814453125	-372.5138549804688	84.6945266723633	-1071.69775390625	-451.8882751464845	61.02671051025392	-1116.275512695313	-262.7057495117188	52.05745697021486	-1093.3076171875	-251.1566314697266	54.00300979614259	-1141.500366210938	-293.9423217773438	35.47656631469727	-1189.815795898438	-478.8738098144532	509.0874633789064	-703.7727050781251	-414.0207519531251	507.6683044433595	-687.2454833984376	-395.9402160644532	534.7560424804689	-687.4557495117189	-361.8778076171876	443.7347412109376	-685.1619873046876	-258.9063720703126	397.875946044922	-672.0940551757814	-214.2223052978516	407.7272949218751	-813.7210693359377	-234.2546844482422	252.0175170898438	-722.0805053710939	-330.0130004882813	204.9170379638672	-682.3529052734376	-291.9753723144532	189.4864349365235	-704.6965942382814	-300.9146728515626	143.8978729248047	-741.6846923828126	-411.879608154297	84.25704956054689	-729.3655395507814	-370.0355529785157	82.40296936035158	-803.5037231445315	-455.9123535156251	58.74970626831056	-770.643737792969	-258.3575744628907	49.70885467529298	-759.2713623046876	-265.7248840332032	57.52206039428712	-709.7952270507814	-310.2158203125001	36.52233123779298	-668.8755493164064	nan	nan	nan	
